# xmcd CD database file
#
# Track frame offsets:
#	182
#	23075
#	45647
#	75832
#	97595
#	125102
#	153385
#	180330
#	205667
#	224920
#	253882
#	279472
#	326522
#
# Disc length: 4659 seconds
#
# Revision: 2
# Processed by: cddbd v1.5.2PL0 Copyright (c) Steve Scherf et al.
# Submitted via: CDex 1.70beta2
#
DISCID=ab12310d
DTITLE=Society Syncopators - Congo square
DYEAR=1997
DGENRE=Jazz
TTITLE0=Russian rag
TTITLE1=You always hurt the one you love
TTITLE2=Comgo Suqare
TTITLE3=The fish seller
TTITLE4=My mama rocks me
TTITLE5=Octopus rag
TTITLE6=Jazz lips
TTITLE7=The payoff
TTITLE8=One for Lonnie
TTITLE9=I gotta right to sing the blues
TTITLE10=Speak to me
TTITLE11=Tin roof blues
TTITLE12=Jersey lightning
EXTD=YEAR: 1997
EXTT0=Society Syncopators
EXTT1=Society Syncopators
EXTT2=Society Syncopators
EXTT3=Society Syncopators
EXTT4=Society Syncopators
EXTT5=Society Syncopators
EXTT6=Society Syncopators
EXTT7=Society Syncopators
EXTT8=Society Syncopators
EXTT9=Society Syncopators
EXTT10=Society Syncopators
EXTT11=Society Syncopators
EXTT12=Society Syncopators
PLAYORDER=
